# xmcd
#
# Track frame offsets:
#	150
#	12420
#	23543
#	35843
#	46268
#	60833
#	74356
#	83859
#	97037
#	106555
#	118173
#	129768
#
# Disc length: 1860 seconds
#
# Revision: 1
# Processed by: cddbd v1.5.2PL0 Copyright (c) Steve Scherf et al.
# Submitted via: audiograbber 1.83.01
#
DISCID=8f07420c
DTITLE=Hank Snow - I've Been Everywhere
DYEAR=1963
DGENRE=Country
TTITLE0=I've Been Everywhere
TTITLE1=When It's Springtime In Alaska
TTITLE2=You're The Reason
TTITLE3=It's A Little More Like Heaven
TTITLE4=On That Old Hawaiian Shore With You
TTITLE5=Galway Bay
TTITLE6=Jamaica Farewell
TTITLE7=Lili Marlene
TTITLE8=In The Blue Canadian Rockies
TTITLE9=Geisha Girl
TTITLE10=My Filipino Girl
TTITLE11=Melba From Melbourne
EXTD=This is from an LP that I have convereted to CD
EXTT0=
EXTT1=
EXTT2=
EXTT3=
EXTT4=
EXTT5=
EXTT6=
EXTT7=
EXTT8=
EXTT9=
EXTT10=
EXTT11=
PLAYORDER=
